<svg width="28" height="16" viewBox="0 0 28 16" fill="none" xmlns="http://www.w3.org/2000/svg">
<path d="M27.1644 3.09174L15.0707 15.4667C14.779 15.7792 14.4248 15.9355 14.0082 15.9355C13.8103 15.9355 13.6228 15.8938 13.4457 15.8105C13.2582 15.7272 13.0967 15.6126 12.9613 15.4667L0.867546 3.09174C0.586296 2.8209 0.445671 2.48236 0.445671 2.07611C0.445671 1.80528 0.508171 1.56049 0.633171 1.34174C0.758171 1.1334 0.930046 0.966736 1.1488 0.841736C1.35713 0.716736 1.59671 0.654236 1.86755 0.654236C2.28421 0.654236 2.62275 0.789653 2.88317 1.06049L14.8519 13.2792H13.18L25.1488 1.06049C25.3988 0.789653 25.7373 0.654236 26.1644 0.654236C26.4353 0.654236 26.68 0.716736 26.8988 0.841736C27.1071 0.966736 27.2738 1.1334 27.3988 1.34174C27.5238 1.56049 27.5863 1.80528 27.5863 2.07611C27.5863 2.27403 27.5498 2.46153 27.4769 2.63861C27.404 2.81569 27.2998 2.96674 27.1644 3.09174Z" fill="#8D8D92"/>
</svg>
