<svg width="61" height="57" viewBox="0 0 61 57" fill="none" xmlns="http://www.w3.org/2000/svg">
<path d="M11.7012 56.7549C10.7702 56.7549 10.063 56.5311 9.57959 56.0835C9.09619 55.6538 8.84554 55.1077 8.82764 54.4453C8.80973 53.8008 9.03353 53.1652 9.49902 52.5386C9.91081 52.0194 10.4032 51.348 10.9761 50.5244C11.549 49.7188 12.1219 48.8683 12.6948 47.9731C13.2677 47.078 13.7601 46.2365 14.1719 45.4487C11.3431 44.1418 8.86344 42.4409 6.73291 40.3462C4.62028 38.2515 2.97314 35.8882 1.7915 33.2563C0.627767 30.6245 0.0458984 27.8405 0.0458984 24.9043C0.0458984 21.5205 0.824707 18.3516 2.38232 15.3975C3.95785 12.4434 6.13314 9.85628 8.9082 7.63623C11.7012 5.39827 14.9417 3.65267 18.6299 2.39941C22.318 1.12826 26.2747 0.492676 30.5 0.492676C34.7253 0.492676 38.682 1.12826 42.3701 2.39941C46.0583 3.65267 49.2899 5.39827 52.0649 7.63623C54.8579 9.85628 57.0332 12.4434 58.5908 15.3975C60.1663 18.3516 60.9541 21.5205 60.9541 24.9043C60.9541 27.7152 60.417 30.3739 59.3428 32.8804C58.2865 35.369 56.7736 37.6338 54.8042 39.6748C52.8527 41.7158 50.5163 43.4704 47.7949 44.9385C45.0915 46.3887 42.0837 47.4897 38.7715 48.2417C35.4593 48.9937 31.9323 49.3159 28.1904 49.2085C26.3822 50.5155 24.4307 51.7419 22.3359 52.8877C20.2412 54.0335 18.245 54.9645 16.3472 55.6807C14.4494 56.3968 12.9007 56.7549 11.7012 56.7549ZM14.521 52.2969C15.3267 51.9567 16.3472 51.4375 17.5825 50.7393C18.8179 50.041 20.098 49.2622 21.4229 48.4028C22.7477 47.5614 23.9562 46.7467 25.0483 45.959C25.5496 45.5651 26.033 45.2786 26.4985 45.0996C26.9819 44.9027 27.5011 44.8042 28.0562 44.8042C28.5933 44.8221 29.0677 44.84 29.4795 44.8579C29.8913 44.8579 30.2314 44.8579 30.5 44.8579C34.1165 44.8579 37.5003 44.3387 40.6514 43.3003C43.8024 42.2619 46.5596 40.8296 48.9229 39.0034C51.304 37.1772 53.166 35.0557 54.5088 32.6387C55.8516 30.2217 56.5229 27.6436 56.5229 24.9043C56.5229 22.1471 55.8516 19.569 54.5088 17.1699C53.166 14.7529 51.304 12.6313 48.9229 10.8052C46.5596 8.9611 43.8024 7.51986 40.6514 6.48145C37.5003 5.44303 34.1165 4.92383 30.5 4.92383C26.8835 4.92383 23.4997 5.44303 20.3486 6.48145C17.1976 7.51986 14.4315 8.9611 12.0503 10.8052C9.68701 12.6313 7.83398 14.7529 6.49121 17.1699C5.16634 19.569 4.50391 22.1471 4.50391 24.9043C4.50391 27.2855 5.02311 29.5503 6.06152 31.6987C7.09993 33.8472 8.60384 35.8166 10.5732 37.6069C12.5605 39.3794 14.9596 40.9191 17.7705 42.2261C18.6299 42.6379 19.1312 43.1392 19.2744 43.73C19.4176 44.3208 19.3013 44.9653 18.9253 45.6636C18.4598 46.5229 17.7705 47.5614 16.8574 48.7788C15.9443 50.0142 15.1118 51.0973 14.3599 52.0283C14.2882 52.1178 14.2703 52.1895 14.3062 52.2432C14.342 52.3148 14.4136 52.3327 14.521 52.2969ZM17.9854 29.04C16.9111 29.04 15.9891 28.6641 15.2192 27.9121C14.4673 27.1423 14.0913 26.2202 14.0913 25.146C14.0913 24.0718 14.4673 23.1587 15.2192 22.4067C15.9891 21.6369 16.9111 21.252 17.9854 21.252C19.0417 21.252 19.9548 21.6369 20.7246 22.4067C21.4945 23.1587 21.8794 24.0718 21.8794 25.146C21.8794 26.2202 21.4945 27.1423 20.7246 27.9121C19.9727 28.6641 19.0596 29.04 17.9854 29.04ZM30.5 29.04C29.4437 29.04 28.5306 28.6641 27.7607 27.9121C27.0088 27.1423 26.6328 26.2202 26.6328 25.146C26.6328 24.0718 27.0088 23.1587 27.7607 22.4067C28.5306 21.6369 29.4437 21.252 30.5 21.252C31.5742 21.252 32.4873 21.6369 33.2393 22.4067C34.0091 23.1587 34.394 24.0718 34.394 25.146C34.394 26.2202 34.0091 27.1423 33.2393 27.9121C32.4873 28.6641 31.5742 29.04 30.5 29.04ZM43.0415 29.04C41.9673 29.04 41.0452 28.6641 40.2754 27.9121C39.5234 27.1423 39.1475 26.2202 39.1475 25.146C39.1475 24.0718 39.5234 23.1587 40.2754 22.4067C41.0452 21.6369 41.9673 21.252 43.0415 21.252C44.1157 21.252 45.0288 21.6369 45.7808 22.4067C46.5506 23.1587 46.9355 24.0718 46.9355 25.146C46.9355 26.2202 46.5506 27.1423 45.7808 27.9121C45.0288 28.6641 44.1157 29.04 43.0415 29.04Z" fill="#8D8D92"/>
</svg>
