<svg width="77" height="65" viewBox="0 0 77 65" fill="none" xmlns="http://www.w3.org/2000/svg">
<path d="M44.5 64.3125C42.3125 64.3125 40.1667 64.0833 38.0625 63.625C35.9583 63.1667 33.9479 62.5208 32.0312 61.6875C33.5312 59.9167 34.6979 57.9271 35.5312 55.7188C36.3854 53.5104 36.8125 51.1875 36.8125 48.75C36.8125 47.1042 36.625 45.5312 36.25 44.0312C37.4792 43.7396 38.7812 43.5104 40.1562 43.3438C41.5312 43.1562 42.9688 43.0625 44.4688 43.0625C47.6146 43.0625 50.4896 43.4062 53.0938 44.0938C55.6979 44.7812 57.9479 45.6771 59.8438 46.7812C61.7396 47.8646 63.1979 49.0104 64.2188 50.2188C66.3646 47.8854 68.0417 45.1979 69.25 42.1562C70.4583 39.1146 71.0625 35.875 71.0625 32.4375C71.0625 28.75 70.375 25.3021 69 22.0938C67.625 18.8854 65.7188 16.0625 63.2812 13.625C60.8438 11.1875 58.0208 9.29167 54.8125 7.9375C51.6042 6.5625 48.1562 5.875 44.4688 5.875C41.0938 5.875 37.9167 6.45833 34.9375 7.625C31.9583 8.77083 29.2917 10.375 26.9375 12.4375C24.5833 14.5 22.6562 16.9271 21.1562 19.7188C19.6562 22.4896 18.6875 25.4896 18.25 28.7188C17.4167 28.6146 16.4896 28.5938 15.4688 28.6562C14.4688 28.6979 13.5938 28.7917 12.8438 28.9375C13.2812 24.9792 14.3958 21.2812 16.1875 17.8438C18 14.4062 20.3333 11.3958 23.1875 8.8125C26.0625 6.22917 29.3125 4.20833 32.9375 2.75C36.5625 1.29167 40.4062 0.5625 44.4688 0.5625C48.8229 0.5625 52.9167 1.39583 56.75 3.0625C60.6042 4.72917 64 7.03125 66.9375 9.96875C69.875 12.9062 72.1771 16.3021 73.8438 20.1562C75.5312 23.9896 76.375 28.0833 76.375 32.4375C76.375 36.7917 75.5417 40.8958 73.875 44.75C72.2083 48.5833 69.9062 51.9688 66.9688 54.9062C64.0312 57.8438 60.6354 60.1458 56.7812 61.8125C52.9479 63.4792 48.8542 64.3125 44.5 64.3125ZM44.4688 37.75C42.4688 37.7292 40.6562 37.2083 39.0312 36.1875C37.4271 35.1458 36.1458 33.7396 35.1875 31.9688C34.2292 30.1979 33.75 28.1979 33.75 25.9688C33.7292 23.8646 34.1979 21.9375 35.1562 20.1875C36.1146 18.4375 37.4062 17.0417 39.0312 16C40.6562 14.9583 42.4688 14.4375 44.4688 14.4375C46.4688 14.4375 48.2708 14.9583 49.875 16C51.5 17.0417 52.7917 18.4375 53.75 20.1875C54.7083 21.9375 55.1875 23.8646 55.1875 25.9688C55.1875 28.2188 54.7083 30.2396 53.75 32.0312C52.7917 33.8021 51.5 35.2083 49.875 36.25C48.2708 37.2708 46.4688 37.7708 44.4688 37.75ZM16.6562 64.6562C14.4896 64.6562 12.4479 64.2396 10.5312 63.4062C8.61458 62.5938 6.92708 61.4583 5.46875 60C4.01042 58.5417 2.86458 56.8542 2.03125 54.9375C1.19792 53.0208 0.78125 50.9688 0.78125 48.7812C0.78125 46.5938 1.19792 44.5521 2.03125 42.6562C2.86458 40.7396 4.01042 39.0521 5.46875 37.5938C6.92708 36.1146 8.61458 34.9688 10.5312 34.1562C12.4479 33.3229 14.4896 32.9062 16.6562 32.9062C18.8438 32.9062 20.8958 33.3229 22.8125 34.1562C24.7292 34.9688 26.4167 36.1042 27.875 37.5625C29.3333 39.0208 30.4688 40.7083 31.2812 42.625C32.1146 44.5417 32.5312 46.5938 32.5312 48.7812C32.5312 50.9479 32.1146 52.9896 31.2812 54.9062C30.4479 56.8229 29.2917 58.5104 27.8125 59.9688C26.3542 61.4271 24.6667 62.5729 22.75 63.4062C20.8333 64.2396 18.8021 64.6562 16.6562 64.6562ZM16.6562 58.7188C17.2396 58.7188 17.6979 58.5417 18.0312 58.1875C18.3854 57.8333 18.5625 57.375 18.5625 56.8125V50.6875H24.6875C25.25 50.6875 25.7083 50.5208 26.0625 50.1875C26.4167 49.8333 26.5938 49.3646 26.5938 48.7812C26.5938 48.1979 26.4167 47.7396 26.0625 47.4062C25.7083 47.0521 25.25 46.875 24.6875 46.875H18.5625V40.75C18.5625 40.1875 18.3854 39.7292 18.0312 39.375C17.6979 39.0208 17.2396 38.8438 16.6562 38.8438C16.0729 38.8438 15.6042 39.0208 15.25 39.375C14.9167 39.7292 14.75 40.1875 14.75 40.75V46.875H8.625C8.0625 46.875 7.60417 47.0521 7.25 47.4062C6.89583 47.7396 6.71875 48.1979 6.71875 48.7812C6.71875 49.3646 6.89583 49.8333 7.25 50.1875C7.60417 50.5208 8.0625 50.6875 8.625 50.6875H14.75V56.8125C14.75 57.375 14.9167 57.8333 15.25 58.1875C15.6042 58.5417 16.0729 58.7188 16.6562 58.7188Z" fill="#8D8D92"/>
</svg>
