<svg width="47" height="48" viewBox="0 0 47 48" fill="none" xmlns="http://www.w3.org/2000/svg">
<path d="M0.344408 19.5339C0.344408 16.9558 0.828783 14.5417 1.79753 12.2917C2.76628 10.0261 4.11003 8.03394 5.82878 6.31519C7.54753 4.59644 9.53191 3.25269 11.7819 2.28394C14.0475 1.31519 16.4694 0.830811 19.0475 0.830811C21.6257 0.830811 24.0397 1.31519 26.2897 2.28394C28.5553 3.25269 30.5475 4.59644 32.2663 6.31519C33.985 8.03394 35.3288 10.0261 36.2975 12.2917C37.2663 14.5417 37.7507 16.9558 37.7507 19.5339C37.7507 21.6746 37.4069 23.7058 36.7194 25.6277C36.0475 27.5496 35.11 29.2917 33.9069 30.8542L45.3678 42.3855C45.6178 42.6355 45.8053 42.9246 45.9303 43.2527C46.071 43.5808 46.1413 43.9324 46.1413 44.3074C46.1413 44.823 46.0241 45.2917 45.7897 45.7136C45.571 46.1355 45.2585 46.4636 44.8522 46.698C44.446 46.948 43.9772 47.073 43.446 47.073C43.071 47.073 42.7116 47.0027 42.3678 46.8621C42.0397 46.7371 41.735 46.5417 41.4538 46.2761L29.9225 34.7214C28.3913 35.8152 26.7038 36.6746 24.86 37.2996C23.0163 37.9246 21.0788 38.2371 19.0475 38.2371C16.4694 38.2371 14.0475 37.7527 11.7819 36.7839C9.53191 35.8152 7.54753 34.4714 5.82878 32.7527C4.11003 31.0339 2.76628 29.0496 1.79753 26.7996C0.828783 24.5339 0.344408 22.1121 0.344408 19.5339ZM4.35222 19.5339C4.35222 21.5652 4.72722 23.4714 5.47722 25.2527C6.24285 27.0183 7.29753 28.573 8.64128 29.9167C10.0007 31.2605 11.5632 32.3152 13.3288 33.0808C15.11 33.8464 17.0163 34.2292 19.0475 34.2292C21.0788 34.2292 22.9772 33.8464 24.7428 33.0808C26.5241 32.3152 28.0866 31.2605 29.4303 29.9167C30.7741 28.573 31.8288 27.0183 32.5944 25.2527C33.36 23.4714 33.7428 21.5652 33.7428 19.5339C33.7428 17.5027 33.36 15.6042 32.5944 13.8386C31.8288 12.0574 30.7741 10.4949 29.4303 9.15112C28.0866 7.79175 26.5241 6.73706 24.7428 5.98706C22.9772 5.22144 21.0788 4.83862 19.0475 4.83862C17.0163 4.83862 15.11 5.22144 13.3288 5.98706C11.5632 6.73706 10.0007 7.79175 8.64128 9.15112C7.29753 10.4949 6.24285 12.0574 5.47722 13.8386C4.72722 15.6042 4.35222 17.5027 4.35222 19.5339Z" fill="#8D8D92"/>
</svg>
