<svg width="40" height="40" viewBox="0 0 40 40" fill="none" xmlns="http://www.w3.org/2000/svg">
<path d="M30.9062 26.9492C33.25 26.9492 35.8281 26.5195 37.2734 25.9141C37.6445 25.7773 37.8398 25.7578 38.0938 25.7578C38.6016 25.7578 39.1289 26.1875 39.1289 26.8516C39.1289 27.0273 39.0898 27.3594 38.9141 27.75C35.8281 34.8203 28.875 39.2734 20.6719 39.2734C8.99219 39.2734 0.496094 30.7578 0.496094 19.0781C0.496094 11.0117 5.47656 3.47266 12.5469 0.660156C12.9961 0.484375 13.3281 0.445312 13.4648 0.445312C14.1289 0.445312 14.5781 1.01172 14.5781 1.53906C14.5781 1.83203 14.5195 2.08594 14.3047 2.55469C13.5234 4.15625 13.0547 6.69531 13.0547 9.66406C13.0547 20.3281 19.8906 26.9492 30.9062 26.9492ZM2.85938 18.9805C2.85938 29.3516 10.418 36.9297 20.7695 36.9297C27.2734 36.9297 33.1914 33.6484 36.2383 28.3359C34.6172 28.9023 32.7031 29.1562 30.6133 29.1562C18.25 29.1562 10.7891 21.9102 10.7891 9.83984C10.7891 7.51562 11.1797 5.25 11.8633 3.33594C6.375 6.42188 2.85938 12.5352 2.85938 18.9805Z" fill="white"/>
</svg>
