<svg width="44" height="44" viewBox="0 0 44 44" fill="none" xmlns="http://www.w3.org/2000/svg">
<path d="M22.0781 40.5703C21.5898 40.5703 21.1211 40.5508 20.6523 40.5117L19.5781 42.5625C19.3438 43.0312 18.875 43.2656 18.3281 43.168C17.8008 43.0703 17.4688 42.6797 17.3711 42.1328L17.0195 39.8867C16.1211 39.6328 15.2422 39.3008 14.3633 38.9297L12.7031 40.4141C12.293 40.7656 11.7656 40.8828 11.2383 40.5898C10.8086 40.3359 10.6328 39.8281 10.7305 39.2812L11.1602 37.0742C10.4375 36.5273 9.67578 35.9219 9.01172 35.2773L6.96094 36.1367C6.41406 36.3516 5.90625 36.2148 5.51562 35.7656C5.18359 35.375 5.16406 34.8281 5.4375 34.3594L6.62891 32.4258C6.12109 31.6641 5.67188 30.8438 5.22266 29.9844L2.95703 30.0625C2.42969 30.1016 1.94141 29.8281 1.78516 29.2812C1.60938 28.7734 1.76562 28.2656 2.19531 27.9336L3.95312 26.5273C3.71875 25.6289 3.5625 24.6914 3.50391 23.7148L1.33594 23.0312C0.789062 22.8555 0.496094 22.4648 0.496094 21.8984C0.496094 21.332 0.789062 20.9219 1.33594 20.7656L3.50391 20.082C3.5625 19.1055 3.71875 18.1875 3.95312 17.2695L2.19531 15.8438C1.76562 15.5312 1.60938 15.043 1.78516 14.5352C1.94141 13.9883 2.42969 13.7148 2.95703 13.7539L5.22266 13.8125C5.67188 12.9531 6.12109 12.1523 6.62891 11.3516L5.41797 9.41797C5.14453 8.98828 5.20312 8.44141 5.51562 8.05078C5.90625 7.58203 6.41406 7.46484 6.94141 7.67969L9.01172 8.5C9.67578 7.89453 10.4375 7.26953 11.1602 6.72266L10.7305 4.53516C10.6133 3.94922 10.8086 3.46094 11.2383 3.22656C11.7656 2.93359 12.293 3.01172 12.7031 3.40234L14.3633 4.84766C15.2422 4.49609 16.1211 4.18359 17.0195 3.91016L17.3711 1.68359C17.4688 1.13672 17.8008 0.746094 18.3281 0.648438C18.875 0.550781 19.3438 0.785156 19.5781 1.23438L20.6523 3.28516C21.1406 3.24609 21.5898 3.22656 22.0781 3.22656C22.5469 3.22656 23.0156 3.24609 23.4844 3.28516L24.5781 1.23438C24.793 0.785156 25.2812 0.550781 25.8281 0.648438C26.3555 0.746094 26.7266 1.13672 26.7852 1.68359L27.1367 3.92969C28.0352 4.18359 28.9141 4.49609 29.7734 4.84766L31.4531 3.38281C31.8438 3.01172 32.3906 2.93359 32.8984 3.22656C33.3477 3.46094 33.543 3.94922 33.4258 4.53516L32.9766 6.72266C33.7188 7.26953 34.4609 7.89453 35.125 8.5L37.2148 7.67969C37.7422 7.46484 38.25 7.58203 38.6406 8.05078C38.9531 8.44141 38.9922 8.98828 38.7188 9.41797L37.5273 11.3516C38.0352 12.1523 38.5039 12.9531 38.9336 13.8125L41.1992 13.7539C41.707 13.7148 42.2148 13.9883 42.3711 14.5352C42.5469 15.043 42.3516 15.5312 41.9609 15.8438L40.2031 17.2695C40.4375 18.1875 40.5938 19.1055 40.6719 20.082L42.8008 20.7656C43.3477 20.9414 43.6992 21.332 43.6992 21.8984C43.6992 22.4453 43.3477 22.8555 42.8008 23.0312L40.6719 23.7148C40.5938 24.6914 40.4375 25.6289 40.2031 26.5273L41.9609 27.9336C42.3711 28.2656 42.5469 28.7734 42.3711 29.2812C42.2148 29.8281 41.707 30.1016 41.1992 30.0625L38.9336 29.9844C38.5039 30.8438 38.0352 31.6641 37.5273 32.4258L38.7188 34.3594C39.0117 34.8281 38.9531 35.375 38.6406 35.7656C38.25 36.2148 37.7422 36.3516 37.1953 36.1367L35.125 35.2773C34.4609 35.9219 33.7188 36.5273 32.9766 37.0742L33.4258 39.2812C33.5625 39.8281 33.3477 40.3359 32.8984 40.5898C32.3906 40.8828 31.8438 40.7656 31.4531 40.4141L29.7734 38.9297C28.9141 39.3008 28.0352 39.6328 27.1367 39.8672L26.7852 42.1328C26.7266 42.6797 26.3555 43.0703 25.8281 43.168C25.2812 43.2656 24.8125 43.0312 24.5781 42.5625L23.4844 40.5117C23.0156 40.5508 22.5469 40.5703 22.0781 40.5703ZM22.0391 16.8203C24.3828 16.8203 26.3359 18.3828 26.9609 20.5312H37.3711C36.707 12.543 30.2812 6.37109 22.0781 6.37109C19.6562 6.37109 17.4102 6.89844 15.3984 7.85547L20.7305 16.9961C21.1406 16.8789 21.5898 16.8203 22.0391 16.8203ZM6.76562 21.918C6.76562 27.0742 9.14844 31.625 12.918 34.4375L18.3867 25.4922C17.4883 24.5742 16.9414 23.3242 16.9414 21.9375C16.9414 20.5508 17.4883 19.3008 18.3672 18.3828L13.0352 9.28125C9.1875 12.0938 6.76562 16.6836 6.76562 21.918ZM22.0391 24.1055C23.2891 24.1055 24.2461 23.1875 24.2461 21.9375C24.2461 20.6875 23.2891 19.7305 22.0391 19.7305C20.8086 19.7305 19.8516 20.6875 19.8516 21.9375C19.8516 23.1875 20.8086 24.1055 22.0391 24.1055ZM22.0781 37.4258C30.3008 37.4258 36.7461 31.2344 37.3906 23.2266H26.9805C26.4141 25.4141 24.4219 27.0352 22.0391 27.0352C21.5898 27.0352 21.1602 26.9766 20.7305 26.8594L15.2617 35.8633C17.293 36.8594 19.6172 37.4258 22.0781 37.4258Z" fill="#8D8D92"/>
</svg>
